<svg width="20" height="20" viewBox="0 0 20 20" fill="none" xmlns="http://www.w3.org/2000/svg">
<path d="M19.5702 12.6606C19.5685 12.3006 19.3769 11.9706 19.076 11.7706L11.5434 7.08057L11.5171 1.58057C11.5131 0.750566 10.8399 0.0805664 10.0099 0.0805664C9.17986 0.0805664 8.51307 0.750566 8.51704 1.58057L8.54338 7.08057L1.05575 11.7706C0.756653 11.9606 0.568278 12.3006 0.570002 12.6606C0.573354 13.3606 1.2558 13.8706 1.93481 13.6606L8.56492 11.5806L8.59126 17.0806L6.7977 18.4306C6.66813 18.5206 6.59885 18.6706 6.59961 18.8306L6.60244 19.4206C6.60402 19.7506 6.92517 19.9906 7.24475 19.9006L10.1009 19.0806L12.9648 19.9006C13.2852 19.9906 13.6041 19.7506 13.6025 19.4206L13.5997 18.8306C13.5989 18.6706 13.5282 18.5206 13.3978 18.4306L11.5913 17.0806L11.565 11.5806L18.215 13.6606C18.896 13.8706 19.5736 13.3606 19.5702 12.6606Z" fill="#848CA2"/>
</svg>
