<svg width="462" height="78" viewBox="0 0 462 78" fill="none" xmlns="http://www.w3.org/2000/svg">
<path d="M20 63.0006C20 63.0006 117.5 16.3784 223.5 11.9145C329.5 7.4506 442 63.0006 442 63.0006" stroke="white" stroke-width="4" stroke-linecap="round" stroke-dasharray="2 12"/>
<path d="M303.887 31.1289C304.358 31.2249 304.842 31.0651 305.186 30.7272L313.395 22.1837L320.58 23.6507C321.664 23.872 322.725 23.1769 322.955 22.0945C323.185 21.012 322.496 19.9595 321.412 19.7381L314.226 18.2711L310.181 7.2256C310.016 6.78366 309.625 6.44518 309.155 6.34915C308.24 6.16244 307.385 6.91327 307.471 7.85613L308.348 17.0708L301.163 15.6038L299.898 12.8962C299.816 12.7026 299.64 12.5713 299.431 12.5286L298.66 12.3713C298.229 12.2832 297.827 12.6366 297.856 13.0779L298.134 17.0266L296.27 20.5379C296.064 20.9313 296.289 21.4126 296.72 21.5006L297.49 21.658C297.699 21.7007 297.915 21.6494 298.068 21.5039L300.331 19.5164L307.516 20.9834L302.958 29.0885C302.495 29.9193 302.973 30.9422 303.887 31.1289Z" fill="white"/>
<path d="M11 72.0011C11 74.7612 8.76171 76.9993 6 76.9993C3.23829 76.9993 1 74.7612 1 72.0011C1 69.241 3.23829 67.0029 6 67.0029C8.76171 67.0029 11 69.241 11 72.0011Z" stroke="white" stroke-width="2"/>
<path d="M461 72.0011C461 74.7612 458.762 76.9993 456 76.9993C453.238 76.9993 451 74.7612 451 72.0011C451 69.241 453.238 67.0029 456 67.0029C458.762 67.0029 461 69.241 461 72.0011Z" stroke="white" stroke-width="2"/>
</svg>
