<svg width="24" height="24" viewBox="0 0 24 24" fill="none" xmlns="http://www.w3.org/2000/svg">
<path fill-rule="evenodd" clip-rule="evenodd" d="M16.2489 15.2954H17.3023L22.9556 20.9754C23.5023 21.5221 23.5023 22.4154 22.9556 22.9621C22.4089 23.5088 21.5156 23.5088 20.9689 22.9621L15.3023 17.2954V16.2421L14.9423 15.8688C13.0756 17.4688 10.5289 18.2954 7.82227 17.8421C4.1156 17.2154 1.1556 14.1221 0.702266 10.3888C0.00893307 4.74876 4.7556 0.00209713 10.3956 0.69543C14.1289 1.14876 17.2223 4.10876 17.8489 7.81543C18.3023 10.5221 17.4756 13.0688 15.8756 14.9354L16.2489 15.2954ZM3.30227 9.29543C3.30227 12.6154 5.98227 15.2954 9.30227 15.2954C12.6223 15.2954 15.3023 12.6154 15.3023 9.29543C15.3023 5.97543 12.6223 3.29543 9.30227 3.29543C5.98227 3.29543 3.30227 5.97543 3.30227 9.29543Z" fill="white"/>
</svg>
